<?xml version="1.0" encoding="UTF-8" standalone="no"?>
<svg
   xmlns:dc="http://purl.org/dc/elements/1.1/"
   xmlns:cc="http://creativecommons.org/ns#"
   xmlns:rdf="http://www.w3.org/1999/02/22-rdf-syntax-ns#"
   xmlns:svg="http://www.w3.org/2000/svg"
   xmlns="http://www.w3.org/2000/svg"
   xmlns:xlink="http://www.w3.org/1999/xlink"
   height="100%"
   width="100%"
   id="Layer_1"
   version="1.1"
   viewBox="0 0 128 80"
   xml:space="preserve"><metadata
   id="metadata421"><rdf:RDF><cc:Work
       rdf:about=""><dc:format>image/svg+xml</dc:format><dc:type
         rdf:resource="http://purl.org/dc/dcmitype/StillImage" /><dc:title></dc:title></cc:Work></rdf:RDF></metadata><defs
   id="defs419" /><style
   type="text/css"
   id="style10" />



    <g
   transform="translate(-14,-24)"
   id="g476"><g
     id="g448"><g
       id="g22"><defs
   id="defs13"><path
     d="m 14,26 c 0,-1.1 0.9,-2 2,-2 h 124 c 1.1,0 2,0.9 2,2 v 76 c 0,1.1 -0.9,2 -2,2 H 16 c -1.1,0 -2,-0.9 -2,-2 z"
     id="SVGID_1_" /></defs>
        <use
   height="100%"
   width="100%"
   y="0"
   x="0"
   fill="#d9d9d9"
   clip-rule="evenodd"
   fill-rule="evenodd"
   overflow="visible"
   xlink:href="#SVGID_1_"
   id="use15" />
        <clipPath
   id="SVGID_2_"><use
     height="100%"
     width="100%"
     y="0"
     x="0"
     overflow="visible"
     xlink:href="#SVGID_1_"
     id="use17" /></clipPath>
        <path
   stroke-miterlimit="10"
   stroke-width="2"
   stroke="#cbcbcb"
   fill="#d9d9d9"
   d="m 14,26 c 0,-1.1 0.9,-2 2,-2 h 124 c 1.1,0 2,0.9 2,2 v 76 c 0,1.1 -0.9,2 -2,2 H 16 c -1.1,0 -2,-0.9 -2,-2 z"
   clip-path="url(#SVGID_2_)"
   id="path20" /></g><g
       id="g62"><defs
   id="defs55"><path
     d="m 23.3,75.3 c 0,-1.1 0.9,-2 2,-2 h 105.4 c 1.1,0 2,0.9 2,2 v 1.3 c 0,1.1 -0.9,2 -2,2 H 25.3 c -1.1,0 -2,-0.9 -2,-2 z"
     id="SVGID_9_" /></defs>
        <clipPath
   id="SVGID_10_"><use
     height="100%"
     width="100%"
     y="0"
     x="0"
     overflow="visible"
     xlink:href="#SVGID_9_"
     id="use57" /></clipPath>
        <path
   d="M 18.3,68.3 H 137.6 V 83.6 H 18.3 Z"
   fill="#979797"
   clip-path="url(#SVGID_10_)"
   id="rect60" /></g><g
       id="g72"><defs
   id="defs65"><path
     d="m 23.3,88.7 c 0,-1.1 0.9,-2 2,-2 h 33.3 c 1.1,0 2,0.9 2,2 V 90 c 0,1.1 -0.9,2 -2,2 H 25.3 c -1.1,0 -2,-0.9 -2,-2 z"
     id="SVGID_11_" /></defs>
        <clipPath
   id="SVGID_12_"><use
     height="100%"
     width="100%"
     y="0"
     x="0"
     overflow="visible"
     xlink:href="#SVGID_11_"
     id="use67" /></clipPath>
        <path
   d="M 18.3,81.7 H 65.6 V 97 H 18.3 Z"
   fill="#979797"
   clip-path="url(#SVGID_12_)"
   id="rect70" /></g><g
       id="g82"><defs
   id="defs75"><path
     d="m 95.3,88.7 c 0,-1.1 0.9,-2 2,-2 h 33.3 c 1.1,0 2,0.9 2,2 V 90 c 0,1.1 -0.9,2 -2,2 H 97.3 c -1.1,0 -2,-0.9 -2,-2 z"
     id="SVGID_13_" /></defs>
        <clipPath
   id="SVGID_14_"><use
     height="100%"
     width="100%"
     y="0"
     x="0"
     overflow="visible"
     xlink:href="#SVGID_13_"
     id="use77" /></clipPath>
        <path
   d="m 90.3,81.7 h 47.3 V 97 H 90.3 Z"
   fill="#979797"
   clip-path="url(#SVGID_14_)"
   id="rect80" /></g></g></g>
</svg>
