<?xml version="1.0" encoding="UTF-8" standalone="no"?>
<svg
   xmlns:dc="http://purl.org/dc/elements/1.1/"
   xmlns:cc="http://creativecommons.org/ns#"
   xmlns:rdf="http://www.w3.org/1999/02/22-rdf-syntax-ns#"
   xmlns:svg="http://www.w3.org/2000/svg"
   xmlns="http://www.w3.org/2000/svg"
   xmlns:xlink="http://www.w3.org/1999/xlink"
   height="100%"
   width="100%"
   xml:space="preserve"
   viewBox="0 0 128 80"
   version="1.1"
   id="Layer_1"><metadata
     id="metadata611"><rdf:RDF><cc:Work
         rdf:about=""><dc:format>image/svg+xml</dc:format><dc:type
           rdf:resource="http://purl.org/dc/dcmitype/StillImage" /><dc:title></dc:title></cc:Work></rdf:RDF></metadata><defs
     id="defs609" /><style
     id="style562"
     type="text/css">
	.st0{clip-path:url(#SVGID_2_);fill:#FFFFFF;stroke:#CBCBCB;stroke-width:2;stroke-miterlimit:10;}
	.st1{clip-path:url(#SVGID_4_);fill:#F7B600;}
	.st2{clip-path:url(#SVGID_6_);fill:#1A1F71;}
	.st3{clip-path:url(#SVGID_8_);fill:#1A1F71;}
</style><g
     transform="translate(-14,-24)"
     id="g638"><g
       id="g574"><defs
         id="defs565"><path
           d="m 14,30 c 0,-3.3 2.7,-6 6,-6 h 116 c 3.3,0 6,2.7 6,6 v 68 c 0,3.3 -2.7,6 -6,6 H 20 c -3.3,0 -6,-2.7 -6,-6 z"
           id="SVGID_1_" /></defs><use
         height="100%"
         width="100%"
         y="0"
         x="0"
         style="clip-rule:evenodd;overflow:visible;fill:#ffffff;fill-rule:evenodd"
         xlink:href="#SVGID_1_"
         id="use567" /><clipPath
         id="SVGID_2_"><use
           height="100%"
           width="100%"
           y="0"
           x="0"
           style="overflow:visible"
           xlink:href="#SVGID_1_"
           id="use569" /></clipPath><path
         class="st0"
         d="m 14,30 c 0,-3.3 2.7,-6 6,-6 h 116 c 3.3,0 6,2.7 6,6 v 68 c 0,3.3 -2.7,6 -6,6 H 20 c -3.3,0 -6,-2.7 -6,-6 z"
         clip-path="url(#SVGID_2_)"
         id="path572" /></g><g
       id="g584"><defs
         id="defs577"><rect
           height="10.7"
           id="SVGID_3_"
           width="117.3"
           x="19.299999"
           y="88" /></defs><clipPath
         id="SVGID_4_"><use
           height="100%"
           width="100%"
           y="0"
           x="0"
           style="overflow:visible"
           xlink:href="#SVGID_3_"
           id="use579" /></clipPath><rect
         class="st1"
         height="20.700001"
         width="127.3"
         x="14.3"
         y="83"
         clip-path="url(#SVGID_4_)"
         id="rect582" /></g><g
       id="g594"><defs
         id="defs587"><rect
           height="10.7"
           id="SVGID_5_"
           width="117.3"
           x="19.299999"
           y="29.299999" /></defs><clipPath
         id="SVGID_6_"><use
           height="100%"
           width="100%"
           y="0"
           x="0"
           style="overflow:visible"
           xlink:href="#SVGID_5_"
           id="use589" /></clipPath><rect
         class="st2"
         height="20.700001"
         width="127.3"
         x="14.3"
         y="24.299999"
         clip-path="url(#SVGID_6_)"
         id="rect592" /></g><g
       id="g604"><defs
         id="defs597"><path
           d="m 78.2,49.9 -6.1,28.7 h -7.4 l 6.1,-28.7 z m 31.4,18.5 3.9,-10.8 2.3,10.8 z m 8.3,10.2 h 6.9 l -6,-28.7 h -6.4 c -1.4,0 -2.7,0.8 -3.2,2.1 L 98,78.6 h 7.8 l 1.5,-4.3 h 9.6 z M 98.5,69.2 c 0,-7.6 -10.5,-8 -10.4,-11.4 0,-1.1 1,-2.1 3.2,-2.4 2.5,-0.2 5.1,0.2 7.4,1.3 l 1.3,-6.1 c -2.2,-0.9 -4.6,-1.3 -7,-1.3 -7.4,0 -12.5,3.9 -12.6,9.5 -0.1,4.2 3.7,6.4 6.5,7.8 2.8,1.4 3.9,2.4 3.9,3.6 0,1.9 -2.4,2.8 -4.5,2.8 -2.7,0.1 -5.3,-0.6 -7.7,-1.8 l -1.4,6.3 c 2.6,1.1 5.4,1.6 8.3,1.5 7.8,0.1 12.9,-3.8 13,-9.8 z M 67.6,49.9 55.6,78.6 h -7.9 l -5.9,-23 C 41.4,54.2 41.1,53.7 40.1,53.1 37.8,52 35.3,51.2 32.7,50.7 l 0.2,-0.8 h 12.7 c 1.7,0 3.2,1.3 3.4,3 l 3,16.5 7.7,-19.6 h 7.9 z"
           id="SVGID_7_" /></defs><clipPath
         id="SVGID_8_"><use
           height="100%"
           width="100%"
           y="0"
           x="0"
           style="overflow:visible"
           xlink:href="#SVGID_7_"
           id="use599" /></clipPath><rect
         class="st3"
         height="39.700001"
         width="102.1"
         x="27.700001"
         y="44.299999"
         clip-path="url(#SVGID_8_)"
         id="rect602" /></g></g></svg>
