<?xml version="1.0" encoding="UTF-8" standalone="no"?>
<svg
   xmlns:dc="http://purl.org/dc/elements/1.1/"
   xmlns:cc="http://creativecommons.org/ns#"
   xmlns:rdf="http://www.w3.org/1999/02/22-rdf-syntax-ns#"
   xmlns:svg="http://www.w3.org/2000/svg"
   xmlns="http://www.w3.org/2000/svg"
   xmlns:xlink="http://www.w3.org/1999/xlink"
   height="100%"
   width="100%"
   xml:space="preserve"
   viewBox="0 0 128 80"
   version="1.1"
   id="Layer_1"><metadata
     id="metadata94"><rdf:RDF><cc:Work
         rdf:about=""><dc:format>image/svg+xml</dc:format><dc:type
           rdf:resource="http://purl.org/dc/dcmitype/StillImage" /><dc:title></dc:title></cc:Work></rdf:RDF></metadata><defs
     id="defs92" /><style
     id="style10"
     type="text/css">
	.st0{clip-path:url(#SVGID_3_);stroke:#000000;stroke-width:2;stroke-miterlimit:10;}
	.st1{clip-path:url(#SVGID_5_);fill:#FFFFFF;}
	.st2{clip-path:url(#SVGID_7_);fill:#FF5F00;}
	.st3{clip-path:url(#SVGID_9_);fill:#EB001B;}
	.st4{clip-path:url(#SVGID_11_);fill:#F79E1B;}
	.st5{clip-path:url(#SVGID_13_);fill:#F79E1B;}
</style><g
     transform="translate(-14,-24)"
     id="g87"><g
       id="g25"><g
         id="g13"><path
           id="SVGID_1_"
           d="m 14,30 c 0,-3.3 2.7,-6 6,-6 h 116 c 3.3,0 6,2.7 6,6 v 68 c 0,3.3 -2.7,6 -6,6 H 20 c -3.3,0 -6,-2.7 -6,-6 z" /></g><g
         id="g23"><defs
           id="defs16"><path
             id="SVGID_2_"
             d="m 14,30 c 0,-3.3 2.7,-6 6,-6 h 116 c 3.3,0 6,2.7 6,6 v 68 c 0,3.3 -2.7,6 -6,6 H 20 c -3.3,0 -6,-2.7 -6,-6 z" /></defs><clipPath
           id="SVGID_3_"><use
             height="100%"
             width="100%"
             y="0"
             x="0"
             id="use18"
             xlink:href="#SVGID_2_"
             style="overflow:visible" /></clipPath><path
           id="path21"
           clip-path="url(#SVGID_3_)"
           d="m 14,30 c 0,-3.3 2.7,-6 6,-6 h 116 c 3.3,0 6,2.7 6,6 v 68 c 0,3.3 -2.7,6 -6,6 H 20 c -3.3,0 -6,-2.7 -6,-6 z"
           class="st0" /></g></g><g
       id="g37"><g
         id="g35"><defs
           id="defs28"><path
             id="SVGID_4_"
             d="M 55.3,91.8 V 88 c 0,-1.4 -0.8,-2.3 -2.3,-2.4 -0.8,0 -1.5,0.2 -2.1,1.1 -0.4,-0.7 -1.1,-1.1 -2,-1.1 -0.6,0 -1.3,0.2 -1.8,0.9 v -0.7 h -1.2 v 6 h 1.2 v -3.4 c 0,-1 0.6,-1.6 1.5,-1.6 0.9,0 1.3,0.6 1.3,1.6 v 3.4 h 1.2 v -3.4 c 0,-1 0.6,-1.6 1.5,-1.6 0.9,0 1.4,0.6 1.4,1.6 v 3.4 z m 19.4,-6 H 72.5 V 84 h -1.2 v 1.8 H 70 v 1.1 h 1.3 v 2.8 c 0,1.4 0.5,2.2 2,2.2 0.6,0 1.2,-0.2 1.6,-0.5 l -0.4,-1.1 c -0.4,0.2 -0.8,0.3 -1.1,0.3 -0.6,0 -0.9,-0.4 -0.9,-1 v -2.8 h 2.2 z m 11.1,-0.1 c -0.7,0 -1.3,0.3 -1.6,0.9 V 85.9 H 83 v 6 h 1.2 v -3.4 c 0,-1 0.5,-1.6 1.3,-1.6 0.3,0 0.5,0 0.8,0.2 L 86.7,86 C 86.4,85.7 86,85.7 85.8,85.7 Z M 69,86.3 c -0.6,-0.4 -1.5,-0.6 -2.4,-0.6 -1.5,0 -2.4,0.7 -2.4,1.9 0,1 0.7,1.6 2,1.7 l 0.6,0.1 c 0.7,0.1 1.1,0.3 1.1,0.7 0,0.5 -0.5,0.8 -1.4,0.8 -0.9,0 -1.5,-0.3 -2,-0.6 l -0.6,0.9 c 0.9,0.6 1.9,0.8 2.6,0.8 1.7,0 2.7,-0.8 2.7,-1.9 0,-1 -0.7,-1.6 -2,-1.8 L 66.6,88.2 C 66,88.1 65.5,88 65.5,87.6 c 0,-0.4 0.5,-0.7 1.2,-0.7 0.8,0 1.5,0.3 1.9,0.5 z m 18.1,2.5 c 0,1.8 1.2,3.1 3.1,3.1 0.9,0 1.5,-0.2 2.1,-0.7 l -0.6,-0.9 c -0.5,0.3 -1,0.5 -1.6,0.5 -1,0 -1.8,-0.8 -1.8,-2 0,-1.2 0.8,-2 1.8,-2 0.6,0 1.1,0.2 1.6,0.5 l 0.6,-0.9 c -0.6,-0.5 -1.2,-0.7 -2.1,-0.7 -1.9,0 -3.1,1.3 -3.1,3.1 z m -8.4,-3.1 c -1.7,0 -2.9,1.3 -2.9,3.1 0,1.9 1.2,3.1 3,3.1 0.9,0 1.7,-0.2 2.4,-0.8 l -0.6,-0.9 c -0.5,0.4 -1.1,0.6 -1.7,0.6 -0.8,0 -1.7,-0.5 -1.8,-1.5 h 4.5 c 0,-0.2 0,-0.3 0,-0.5 -0.1,-1.9 -1.2,-3.1 -2.9,-3.1 z m 0,1.1 c 0.9,0 1.5,0.6 1.6,1.5 h -3.2 c 0.1,-0.9 0.7,-1.5 1.6,-1.5 z m -16.1,2 v -3 h -1.2 v 0.7 C 61,86 60.3,85.6 59.5,85.6 c -1.7,0 -2.9,1.3 -2.9,3.1 0,1.8 1.3,3.1 2.9,3.1 0.8,0 1.5,-0.3 1.9,-0.9 v 0.7 h 1.2 z m -4.9,0 c 0,-1.1 0.7,-2 1.9,-2 1.1,0 1.8,0.9 1.8,2 0,1.2 -0.7,2 -1.8,2 -1.1,0 -1.9,-0.9 -1.9,-2 z m 46.1,-3.1 c -0.7,0 -1.3,0.3 -1.6,0.9 V 85.9 H 101 v 6 h 1.2 v -3.4 c 0,-1 0.5,-1.6 1.3,-1.6 0.3,0 0.5,0 0.8,0.2 l 0.4,-1.1 c -0.3,-0.3 -0.7,-0.3 -0.9,-0.3 z m 9.6,5.2 c 0.1,0 0.2,0 0.2,0 0.1,0 0.1,0.1 0.2,0.1 0.1,0.1 0.1,0.1 0.1,0.2 0,0.1 0,0.1 0,0.2 0,0.1 0,0.2 0,0.2 0,0.1 -0.1,0.1 -0.1,0.2 -0.1,0.1 -0.1,0.1 -0.2,0.1 -0.1,0 -0.2,0 -0.2,0 -0.1,0 -0.2,0 -0.2,0 -0.1,0 -0.1,-0.1 -0.2,-0.1 -0.1,-0.1 -0.1,-0.1 -0.1,-0.2 0,-0.1 0,-0.1 0,-0.2 0,-0.1 0,-0.2 0,-0.2 0,-0.1 0.1,-0.1 0.1,-0.2 0.1,-0.1 0.1,-0.1 0.2,-0.1 0,0 0.1,0 0.2,0 z m 0,1.1 c 0.1,0 0.1,0 0.2,0 0.1,0 0.1,-0.1 0.1,-0.1 l 0.1,-0.1 c 0,-0.1 0,-0.1 0,-0.2 0,-0.1 0,-0.1 0,-0.2 0,-0.1 -0.1,-0.1 -0.1,-0.1 l -0.1,-0.1 c -0.1,0 -0.1,0 -0.2,0 -0.1,0 -0.1,0 -0.2,0 -0.1,0 -0.1,0.1 -0.1,0.1 l -0.1,0.1 c 0,0.1 0,0.1 0,0.2 0,0.1 0,0.1 0,0.2 0,0.1 0.1,0.1 0.1,0.1 l 0.1,0.1 c 0.1,0 0.1,0 0.2,0 z m 0,-0.8 c 0.1,0 0.1,0 0.2,0 l 0.1,0.1 v 0.1 c 0,0 -0.1,0 -0.1,0.1 l 0.2,0.2 h -0.1 l -0.2,-0.2 h -0.1 v 0.2 h -0.1 v -0.6 h 0.1 z m -0.1,0.1 v 0 0 l 0.2,0.1 c 0,0 0,0 0,-0.1 0,0 0,0 0,-0.1 0,0 0,0 -0.2,0.1 z M 99.2,88.8 v -3 H 98 v 0.7 c -0.4,-0.5 -1.1,-0.9 -1.9,-0.9 -1.7,0 -2.9,1.3 -2.9,3.1 0,1.8 1.3,3.1 2.9,3.1 0.8,0 1.5,-0.3 1.9,-0.9 v 0.7 h 1.2 z m -4.8,0 c 0,-1.1 0.7,-2 1.9,-2 1.1,0 1.8,0.9 1.8,2 0,1.2 -0.7,2 -1.8,2 -1.2,0 -1.9,-0.9 -1.9,-2 z m 16.8,0 V 83.4 H 110 v 3.1 c -0.4,-0.5 -1.1,-0.9 -1.9,-0.9 -1.7,0 -2.9,1.3 -2.9,3.1 0,1.8 1.3,3.1 2.9,3.1 0.8,0 1.5,-0.3 1.9,-0.9 v 0.7 h 1.2 z m -4.8,0 c 0,-1.1 0.7,-2 1.9,-2 1.1,0 1.8,0.9 1.8,2 0,1.2 -0.7,2 -1.8,2 -1.2,0 -1.9,-0.9 -1.9,-2 z" /></defs><clipPath
           id="SVGID_5_"><use
             height="100%"
             width="100%"
             y="0"
             x="0"
             id="use30"
             xlink:href="#SVGID_4_"
             style="overflow:visible" /></clipPath><rect
           id="rect33"
           clip-path="url(#SVGID_5_)"
           y="78.400002"
           x="40.900002"
           width="78.099998"
           height="18.700001"
           class="st1" /></g></g><g
       id="g49"><g
         id="g47"><defs
           id="defs40"><rect
             y="40.5"
             x="67.599998"
             width="21.6"
             id="SVGID_6_"
             height="35.299999" /></defs><clipPath
           id="SVGID_7_"><use
             height="100%"
             width="100%"
             y="0"
             x="0"
             id="use42"
             xlink:href="#SVGID_6_"
             style="overflow:visible" /></clipPath><rect
           id="rect45"
           clip-path="url(#SVGID_7_)"
           y="35.5"
           x="62.599998"
           width="31.6"
           height="45.299999"
           class="st2" /></g></g><g
       id="g61"><g
         id="g59"><defs
           id="defs52"><path
             id="SVGID_8_"
             d="m 69.9,58.1 c 0,-7.2 3.4,-13.5 8.6,-17.6 -3.8,-3 -8.6,-4.8 -13.9,-4.8 -12.4,0 -22.4,10 -22.4,22.4 0,12.4 10,22.4 22.4,22.4 5.2,0 10,-1.8 13.9,-4.8 -5.3,-4.1 -8.6,-10.5 -8.6,-17.6" /></defs><clipPath
           id="SVGID_9_"><use
             height="100%"
             width="100%"
             y="0"
             x="0"
             id="use54"
             xlink:href="#SVGID_8_"
             style="overflow:visible" /></clipPath><rect
           id="rect57"
           clip-path="url(#SVGID_9_)"
           y="30.700001"
           x="37.099998"
           width="46.299999"
           height="54.900002"
           class="st3" /></g></g><g
       id="g73"><g
         id="g71"><defs
           id="defs64"><path
             id="SVGID_10_"
             d="m 112.6,72 v -0.7 h 0.3 v -0.1 h -0.7 v 0.1 h 0.3 z m 1.4,0 v -0.9 h -0.2 l -0.3,0.6 -0.3,-0.6 H 113 V 72 h 0.2 v -0.7 l 0.2,0.6 h 0.2 l 0.2,-0.6 V 72 Z" /></defs><clipPath
           id="SVGID_11_"><use
             height="100%"
             width="100%"
             y="0"
             x="0"
             id="use66"
             xlink:href="#SVGID_10_"
             style="overflow:visible" /></clipPath><rect
           id="rect69"
           clip-path="url(#SVGID_11_)"
           y="66.099998"
           x="107.1"
           width="11.9"
           height="10.9"
           class="st4" /></g></g><g
       id="g85"><g
         id="g83"><defs
           id="defs76"><path
             id="SVGID_12_"
             d="m 114.7,58.1 c 0,12.4 -10,22.4 -22.4,22.4 -5.2,0 -10,-1.8 -13.9,-4.8 5.2,-4.1 8.6,-10.5 8.6,-17.6 0,-7.2 -3.4,-13.5 -8.6,-17.6 3.8,-3 8.6,-4.8 13.9,-4.8 12.4,0 22.4,10 22.4,22.4" /></defs><clipPath
           id="SVGID_13_"><use
             height="100%"
             width="100%"
             y="0"
             x="0"
             id="use78"
             xlink:href="#SVGID_12_"
             style="overflow:visible" /></clipPath><rect
           id="rect81"
           clip-path="url(#SVGID_13_)"
           y="30.700001"
           x="73.400002"
           width="46.299999"
           height="54.900002"
           class="st5" /></g></g></g></svg>
